<svg width="154" height="55" viewBox="0 0 154 55" fill="none" xmlns="http://www.w3.org/2000/svg">
<path d="M82.3583 54.4412H78.388L74.2821 48.7179H71.6891V54.4412H68.1102V37.0315H75.7272C77.5793 37.0315 79.0297 37.6053 80.0836 38.7479C81.1374 39.8905 81.6644 41.2782 81.6644 42.9008C81.6487 44.1946 81.3826 45.2955 80.8609 46.198C80.3392 47.1006 79.3688 47.8258 77.9498 48.3736L82.353 54.1438V54.4412H82.3583ZM71.6944 40.3653V45.4363H75.7794C76.5411 45.4363 77.1254 45.1859 77.5324 44.6903C77.9393 44.1946 78.1376 43.6312 78.1376 42.9999C78.1219 42.3217 77.908 41.7113 77.4959 41.1739C77.0837 40.6365 76.4942 40.3653 75.7325 40.3653H71.6944Z" fill="#D4AF37"/>
<path d="M88.3006 37.0262H84.7477V54.4359H88.3006V37.0262Z" fill="#D4AF37"/>
<path d="M98.1663 43.9442L102.225 37.0262H106.331V37.2245L99.9088 47.5232V54.4412H96.3298V47.5232L90.184 37.2245V37.0262H94.3108L98.1663 43.9442Z" fill="#D4AF37"/>
<path d="M117.616 51.4569H109.383L108.215 54.4412H104.359L111.564 37.0315H115.461L122.666 54.4412H118.79L117.621 51.4569H117.616ZM113.51 40.96L110.734 48.0241H116.265L113.51 40.96Z" fill="#D4AF37"/>
<path d="M133.68 41.2313C133.252 40.7513 132.699 40.3861 132.015 40.1357C131.337 39.8853 130.648 39.76 129.965 39.76C129.151 39.76 128.473 39.9322 127.925 40.2818C127.372 40.6313 127.101 41.0956 127.101 41.6747C127.101 42.4051 127.382 42.906 127.935 43.1773C128.494 43.4486 129.37 43.6468 130.56 43.7616C134.671 44.1425 136.732 46.0259 136.732 49.4066C136.732 50.6326 136.403 51.6813 135.746 52.5526C135.088 53.4238 134.264 54.0447 133.267 54.4151C132.271 54.7907 131.17 54.9838 129.965 54.9994C128.494 55.0151 127.122 54.7177 125.833 54.102C124.55 53.4864 123.584 52.5943 122.943 51.4152L125.076 49.0049C125.656 49.8188 126.396 50.4292 127.299 50.8465C128.202 51.2587 129.099 51.4674 129.986 51.4674C130.935 51.4674 131.708 51.2796 132.302 50.8935C132.897 50.5126 133.2 50.017 133.2 49.4014C133.215 48.6866 132.96 48.144 132.433 47.7736C131.906 47.4032 131.081 47.1632 129.97 47.0641C129.005 46.965 128.186 46.8241 127.502 46.6415C126.824 46.4589 126.162 46.1772 125.52 45.7963C124.878 45.4155 124.393 44.8781 124.064 44.1946C123.736 43.506 123.579 42.6712 123.595 41.6956C123.61 40.0366 124.231 38.7375 125.463 37.8036C126.694 36.8645 128.186 36.4002 129.949 36.4002C131.264 36.4002 132.391 36.5984 133.335 36.9949C134.274 37.3914 135.14 38.0905 135.939 39.0818L133.69 41.2208L133.68 41.2313Z" fill="#D4AF37"/>
<path d="M149.942 54.462V47.5754H142.763V54.462H139.184V37.0523H142.763V44.0173H149.942V37.0523H153.474V54.462H149.942Z" fill="#D4AF37"/>
<path d="M87.085 4.34588H83.386V8.25876H87.085V4.34588Z" fill="white"/>
<path d="M93.2778 18.7975C93.2778 21.8547 92.7144 21.9904 91.5509 21.9904H89.2293V10.0117H85.5303V21.9904H81.4818V10.0117H77.8141V24.3955C77.8141 26.5397 76.8698 27.5884 74.9343 27.5884C72.9987 27.5884 71.9605 26.5449 71.9605 24.3955V14.3003H68.2928V24.5155C68.2928 28.371 70.8857 31.1674 74.4647 31.1882C74.6004 31.2039 74.7203 31.2143 74.8508 31.2143C74.9812 31.2143 75.1168 31.2039 75.2734 31.1882C78.5393 31.1882 81.0122 28.9083 81.4296 25.5902H91.6344C94.9734 25.5902 96.9664 23.5399 96.9664 20.1017V10.0065H93.2674V18.7922L93.2778 18.7975Z" fill="white"/>
<path d="M91.2848 4.34588H87.5859V8.25876H91.2848V4.34588Z" fill="white"/>
<path d="M89.1667 0H85.499V3.91288H89.1667V0Z" fill="white"/>
<path d="M138.928 27.244H135.229V31.1882H138.928V27.244Z" fill="white"/>
<path d="M147.813 24.3642V25.5902H147.724C147.782 25.1937 147.813 24.7815 147.813 24.3642Z" fill="white"/>
<path d="M149.717 10.0065V23.0182C149.728 23.8529 149.743 25.1154 149.315 26.1015C148.898 27.1554 147.912 27.7553 147.145 27.8023L146.665 27.8336V31.1726L147.161 31.1882C147.239 31.1882 147.312 31.1882 147.385 31.1882C148.919 31.1882 150.286 30.6509 151.35 29.6179C152.66 28.3501 153.411 26.4354 153.411 24.3538V10.0013H149.712L149.717 10.0065Z" fill="white"/>
<path d="M143.608 27.244H139.914V31.1882H143.608V27.244Z" fill="white"/>
<path d="M147.813 10.0065V24.3642C147.813 24.7815 147.782 25.1937 147.724 25.5902H98.9384V4.3198H102.643V21.9382H144.114V10.0117H147.813V10.0065Z" fill="white"/>
<path d="M147.813 24.3642V25.5902H147.724C147.782 25.1937 147.813 24.7815 147.813 24.3642Z" fill="white"/>
<path d="M41.2574 9.13005L38.8836 17.4253H20.4252C18.281 17.4253 16.5384 19.1679 16.5384 21.3121V27.3849H8.24835V21.3121C8.24835 15.9541 11.7282 11.3943 16.5384 9.76653C17.7593 9.35959 19.0635 9.13524 20.4252 9.13524H41.2626L41.2574 9.13005Z" fill="white"/>
<path d="M47.2206 46.1302L53.4447 54.4255H43.073L36.8437 46.1302L30.9065 38.221L30.3013 37.4123C28.1623 37.9497 25.9554 38.221 23.7016 38.221H16.5332V54.4464H8.24313V38.221H0V29.9257H23.7016C31.7413 29.9257 38.8001 24.9328 41.5078 17.4253L41.5287 17.3419L41.5443 17.3053V17.2845L44.0747 9.13005H44.1216L46.9911 0H55.6829L52.8186 9.13005L50.2153 17.4253L49.6727 19.1574C48.384 23.2477 46.2033 26.9049 43.2712 29.9309C42.2121 31.0213 41.0539 32.0334 39.8122 32.9464C39.2696 33.3481 38.7218 33.7186 38.1584 34.0733L41.2783 38.2262L47.2154 46.1354L47.2206 46.1302Z" fill="#D4AF37"/>
</svg>
