<svg width="196" height="70" viewBox="0 0 196 70" fill="none" xmlns="http://www.w3.org/2000/svg">
<path d="M104.82 69.2886H99.7667L94.541 62.0045H91.2409V69.2886H86.6858V47.1309H96.3802C98.7374 47.1309 100.583 47.8612 101.925 49.3154C103.266 50.7696 103.937 52.5358 103.937 54.6009C103.917 56.2476 103.578 57.6487 102.914 58.7974C102.25 59.9461 101.015 60.8691 99.2089 61.5663L104.813 68.9101V69.2886H104.82ZM91.2475 51.3738V57.8279H96.4466C97.4161 57.8279 98.1598 57.5092 98.6777 56.8784C99.1956 56.2476 99.4479 55.5305 99.4479 54.727C99.428 53.8638 99.1558 53.087 98.6312 52.403C98.1067 51.7191 97.3563 51.3738 96.3869 51.3738H91.2475Z" fill="black"/>
<path d="M112.383 47.1245H107.861V69.2823H112.383V47.1245Z" fill="black"/>
<path d="M124.939 55.9292L130.105 47.1245H135.331V47.3768L127.157 60.4842V69.2889H122.602V60.4842L114.78 47.3768V47.1245H120.032L124.939 55.9292Z" fill="black"/>
<path d="M149.693 65.4905H139.215L137.728 69.2886H132.821L141.99 47.1309H146.951L156.12 69.2886H151.187L149.7 65.4905H149.693ZM144.467 52.1308L140.935 61.1214H147.973L144.467 52.1308Z" fill="black"/>
<path d="M170.138 52.4763C169.593 51.8654 168.889 51.4006 168.019 51.0819C167.156 50.7632 166.28 50.6038 165.41 50.6038C164.374 50.6038 163.511 50.8229 162.814 51.2678C162.11 51.7127 161.765 52.3036 161.765 53.0407C161.765 53.9703 162.123 54.6077 162.827 54.953C163.537 55.2983 164.653 55.5506 166.167 55.6967C171.399 56.1814 174.022 58.5785 174.022 62.8812C174.022 64.4416 173.604 65.7763 172.767 66.8852C171.93 67.9941 170.881 68.7842 169.613 69.2557C168.345 69.7337 166.944 69.9794 165.41 69.9993C163.537 70.0193 161.791 69.6408 160.151 68.8572C158.518 68.0737 157.289 66.9383 156.472 65.4376L159.188 62.37C159.925 63.4058 160.868 64.1827 162.017 64.7139C163.166 65.2384 164.308 65.504 165.436 65.504C166.645 65.504 167.628 65.265 168.385 64.7736C169.142 64.2889 169.527 63.6581 169.527 62.8746C169.547 61.9649 169.221 61.2743 168.551 60.8029C167.88 60.3314 166.831 60.026 165.417 59.8998C164.188 59.7737 163.146 59.5944 162.276 59.362C161.413 59.1296 160.569 58.7711 159.753 58.2863C158.936 57.8016 158.318 57.1177 157.9 56.2478C157.482 55.3714 157.282 54.309 157.302 53.0673C157.322 50.9558 158.113 49.3024 159.68 48.1138C161.247 46.9186 163.146 46.3276 165.39 46.3276C167.063 46.3276 168.498 46.58 169.699 47.0846C170.895 47.5893 171.997 48.479 173.013 49.7406L170.151 52.463L170.138 52.4763Z" fill="black"/>
<path d="M190.835 69.3152V60.5504H181.698V69.3152H177.143V47.1575H181.698V56.0219H190.835V47.1575H195.33V69.3152H190.835Z" fill="black"/>
<path d="M110.835 5.53076H106.128V10.5108H110.835V5.53076Z" fill="white"/>
<path d="M118.717 23.9238C118.717 27.8148 118 27.9875 116.519 27.9875H113.564V12.742H108.857V27.9875H103.704V12.742H99.036V31.0485C99.036 33.7776 97.8342 35.1122 95.3707 35.1122C92.9073 35.1122 91.5859 33.7842 91.5859 31.0485V18.2001H86.918V31.2013C86.918 36.1082 90.2181 39.6673 94.7731 39.6938C94.9458 39.7138 95.0985 39.727 95.2645 39.727C95.4305 39.727 95.6031 39.7138 95.8023 39.6938C99.959 39.6938 103.106 36.7922 103.638 32.5691H116.625C120.875 32.5691 123.412 29.9596 123.412 25.5838V12.7354H118.704V23.9171L118.717 23.9238Z" fill="white"/>
<path d="M116.181 5.53076H111.473V10.5108H116.181V5.53076Z" fill="white"/>
<path d="M113.485 0H108.817V4.98002H113.485V0Z" fill="white"/>
<path d="M176.817 34.6743H172.11V39.6942H176.817V34.6743Z" fill="white"/>
<path d="M188.126 31.0088V32.5692H188.013C188.086 32.0646 188.126 31.54 188.126 31.0088Z" fill="white"/>
<path d="M190.549 12.7357V29.2959C190.562 30.3583 190.582 31.9651 190.038 33.2201C189.506 34.5614 188.252 35.325 187.275 35.3848L186.665 35.4246V39.6742L187.295 39.6941C187.395 39.6941 187.488 39.6941 187.581 39.6941C189.533 39.6941 191.273 39.0102 192.627 37.6955C194.294 36.082 195.25 33.6451 195.25 30.9957V12.729H190.542L190.549 12.7357Z" fill="white"/>
<path d="M182.774 34.6743H178.073V39.6942H182.774V34.6743Z" fill="white"/>
<path d="M188.125 12.7354V31.0088C188.125 31.54 188.086 32.0646 188.013 32.5692H125.922V5.4978H130.636V27.9212H183.418V12.7421H188.125V12.7354Z" fill="white"/>
<path d="M188.126 31.0088V32.5692H188.013C188.086 32.0646 188.126 31.54 188.126 31.0088Z" fill="white"/>
<path d="M52.5093 11.6199L49.4881 22.1775H25.9956C23.2666 22.1775 21.0488 24.3953 21.0488 27.1243V34.8533H10.4978V27.1243C10.4978 20.305 14.9267 14.5016 21.0488 12.4299C22.6026 11.912 24.2626 11.6265 25.9956 11.6265H52.5159L52.5093 11.6199Z" fill="white"/>
<path d="M60.099 58.7111L68.0205 69.2687H54.8201L46.8919 58.7111L39.3356 48.6448L38.5653 47.6156C35.8429 48.2995 33.0342 48.6448 30.1657 48.6448H21.0423V69.2953H10.4913V48.6448H0V38.0872H30.1657C40.398 38.0872 49.3819 31.7327 52.8281 22.1777L52.8547 22.0714L52.8746 22.025V21.9984L56.095 11.62H56.1548L59.8068 0H70.8691L67.2237 11.62L63.9103 22.1777L63.2198 24.3822C61.5797 29.5879 58.8041 34.2426 55.0725 38.0938C53.7245 39.4816 52.2504 40.7697 50.6701 41.9317C49.9795 42.443 49.2823 42.9145 48.5652 43.366L52.536 48.6514L60.0923 58.7177L60.099 58.7111Z" fill="black"/>
</svg>
