<svg width="154" height="55" viewBox="0 0 154 55" fill="none" xmlns="http://www.w3.org/2000/svg">
<g opacity="0.2">
<path d="M82.3584 54.4412H78.3882L74.2823 48.7179H71.6893V54.4412H68.1104V37.0315H75.7274C77.5795 37.0315 79.0299 37.6054 80.0838 38.7479C81.1376 39.8905 81.6646 41.2783 81.6646 42.9008C81.6489 44.1947 81.3828 45.2955 80.8611 46.1981C80.3394 47.1006 79.369 47.8258 77.9499 48.3736L82.3532 54.1438V54.4412H82.3584ZM71.6945 40.3653V45.4363H75.7796C76.5413 45.4363 77.1256 45.1859 77.5326 44.6903C77.9395 44.1947 78.1377 43.6312 78.1377 42.9999C78.1221 42.3217 77.9082 41.7113 77.496 41.1739C77.0839 40.6366 76.4943 40.3653 75.7326 40.3653H71.6945Z" fill="#D4AF37"/>
<path d="M88.3009 37.0262H84.748V54.4359H88.3009V37.0262Z" fill="#D4AF37"/>
<path d="M98.1659 43.9442L102.225 37.0262H106.331V37.2245L99.9084 47.5232V54.4412H96.3294V47.5232L90.1836 37.2245V37.0262H94.3104L98.1659 43.9442Z" fill="#D4AF37"/>
<path d="M117.616 51.457H109.384L108.215 54.4412H104.359L111.564 37.0315H115.462L122.666 54.4412H118.79L117.621 51.457H117.616ZM113.51 40.96L110.735 48.0241H116.265L113.51 40.96Z" fill="#D4AF37"/>
<path d="M133.679 41.2313C133.252 40.7513 132.699 40.3861 132.015 40.1357C131.337 39.8852 130.648 39.76 129.965 39.76C129.151 39.76 128.473 39.9322 127.925 40.2817C127.372 40.6313 127.1 41.0956 127.1 41.6747C127.1 42.4051 127.382 42.906 127.935 43.1772C128.493 43.4485 129.37 43.6468 130.559 43.7616C134.671 44.1424 136.731 46.0258 136.731 49.4066C136.731 50.6326 136.403 51.6813 135.745 52.5525C135.088 53.4238 134.264 54.0446 133.267 54.4151C132.271 54.7907 131.17 54.9837 129.965 54.9994C128.493 55.015 127.121 54.7176 125.833 54.102C124.549 53.4864 123.584 52.5943 122.942 51.4152L125.076 49.0049C125.655 49.8187 126.396 50.4291 127.299 50.8465C128.201 51.2587 129.099 51.4673 129.986 51.4673C130.935 51.4673 131.707 51.2795 132.302 50.8935C132.897 50.5126 133.199 50.017 133.199 49.4013C133.215 48.6866 132.959 48.144 132.432 47.7736C131.905 47.4032 131.081 47.1632 129.97 47.064C129.005 46.9649 128.186 46.8241 127.502 46.6415C126.824 46.4589 126.161 46.1771 125.52 45.7963C124.878 45.4154 124.393 44.8781 124.064 44.1946C123.735 43.5059 123.579 42.6712 123.595 41.6956C123.61 40.0365 124.231 38.7374 125.462 37.8036C126.694 36.8645 128.186 36.4001 129.949 36.4001C131.264 36.4001 132.391 36.5984 133.335 36.9949C134.274 37.3914 135.14 38.0905 135.938 39.0818L133.69 41.2208L133.679 41.2313Z" fill="#D4AF37"/>
<path d="M149.941 54.4621V47.5754H142.763V54.4621H139.184V37.0524H142.763V44.0173H149.941V37.0524H153.473V54.4621H149.941Z" fill="#D4AF37"/>
<path d="M87.0847 4.34583H83.3857V8.2587H87.0847V4.34583Z" fill="white"/>
<path d="M93.278 18.7975C93.278 21.8548 92.7146 21.9904 91.5511 21.9904H89.2295V10.0118H85.5305V21.9904H81.482V10.0118H77.8143V24.3955C77.8143 26.5398 76.87 27.5884 74.9344 27.5884C72.9989 27.5884 71.9606 26.545 71.9606 24.3955V14.3003H68.293V24.5155C68.293 28.371 70.8859 31.1674 74.4649 31.1883C74.6005 31.2039 74.7205 31.2144 74.851 31.2144C74.9814 31.2144 75.117 31.2039 75.2735 31.1883C78.5395 31.1883 81.0124 28.9084 81.4298 25.5903H91.6346C94.9736 25.5903 96.9665 23.5399 96.9665 20.1018V10.0066H93.2676V18.7923L93.278 18.7975Z" fill="white"/>
<path d="M91.2849 4.34583H87.5859V8.2587H91.2849V4.34583Z" fill="white"/>
<path d="M89.1667 0H85.499V3.91288H89.1667V0Z" fill="white"/>
<path d="M138.928 27.244H135.229V31.1882H138.928V27.244Z" fill="white"/>
<path d="M147.813 24.3641V25.5902H147.725C147.782 25.1937 147.813 24.7815 147.813 24.3641Z" fill="white"/>
<path d="M149.717 10.0066V23.0182C149.728 23.8529 149.743 25.1155 149.315 26.1015C148.898 27.1554 147.912 27.7554 147.145 27.8023L146.665 27.8336V31.1726L147.161 31.1883C147.239 31.1883 147.312 31.1883 147.385 31.1883C148.919 31.1883 150.286 30.6509 151.35 29.6179C152.66 28.3501 153.411 26.4354 153.411 24.3538V10.0013H149.712L149.717 10.0066Z" fill="white"/>
<path d="M143.608 27.244H139.914V31.1882H143.608V27.244Z" fill="white"/>
<path d="M147.813 10.0066V24.3642C147.813 24.7816 147.782 25.1937 147.724 25.5902H98.9385V4.31982H102.643V21.9382H144.114V10.0117H147.813V10.0066Z" fill="white"/>
<path d="M147.813 24.3641V25.5902H147.725C147.782 25.1937 147.813 24.7815 147.813 24.3641Z" fill="white"/>
<path d="M41.2571 9.13L38.8833 17.4253H20.4249C18.2807 17.4253 16.5381 19.1678 16.5381 21.3121V27.3849H8.24805V21.3121C8.24805 15.9541 11.7279 11.3942 16.5381 9.76648C17.759 9.35955 19.0632 9.1352 20.4249 9.1352H41.2623L41.2571 9.13Z" fill="white"/>
<path d="M47.2206 46.1302L53.4447 54.4255H43.073L36.8437 46.1302L30.9065 38.221L30.3013 37.4123C28.1623 37.9497 25.9554 38.221 23.7016 38.221H16.5332V54.4464H8.24313V38.221H0V29.9257H23.7016C31.7413 29.9257 38.8001 24.9328 41.5078 17.4253L41.5287 17.3419L41.5443 17.3053V17.2845L44.0747 9.13005H44.1216L46.9911 0H55.6829L52.8186 9.13005L50.2153 17.4253L49.6727 19.1574C48.384 23.2477 46.2033 26.9049 43.2712 29.9309C42.2121 31.0213 41.0539 32.0334 39.8122 32.9464C39.2696 33.3481 38.7218 33.7186 38.1584 34.0733L41.2783 38.2262L47.2154 46.1354L47.2206 46.1302Z" fill="#D4AF37"/>
</g>
</svg>
